<?xml version="1.0" encoding="UTF-8"?>
<svg xmlns="http://www.w3.org/2000/svg" xmlns:xlink="http://www.w3.org/1999/xlink" width="500px" height="500px" viewBox="0 0 500 500" version="1.1">
<g id="surface1">
<path style=" stroke:none;fill-rule:nonzero;fill:rgb(0%,0%,0%);fill-opacity:1;" d="M 451.46875 109.617188 L 410.15625 109.617188 L 410.15625 46.628906 C 410.15625 29.371094 396.164062 15.378906 378.90625 15.378906 L 121.09375 15.378906 C 103.835938 15.378906 89.84375 29.371094 89.84375 46.628906 L 89.84375 109.617188 L 48.53125 109.617188 C 21.773438 109.617188 0 131.394531 0 158.148438 L 0 363.386719 C 0 390.144531 21.773438 411.917969 48.53125 411.917969 L 67.125 411.917969 C 71.441406 411.917969 74.9375 408.425781 74.9375 404.105469 C 74.9375 399.789062 71.441406 396.292969 67.125 396.292969 L 48.53125 396.292969 C 30.386719 396.292969 15.625 381.53125 15.625 363.386719 L 15.625 158.148438 C 15.625 140.007812 30.386719 125.242188 48.53125 125.242188 L 451.46875 125.242188 C 469.613281 125.246094 484.375 140.007812 484.375 158.148438 L 484.375 363.386719 C 484.375 381.53125 469.613281 396.292969 451.46875 396.292969 L 437.5 396.292969 C 433.179688 396.292969 429.6875 399.789062 429.6875 404.105469 C 429.6875 408.425781 433.179688 411.917969 437.5 411.917969 L 451.46875 411.917969 C 478.226562 411.917969 500 390.144531 500 363.386719 L 500 158.148438 C 500 131.394531 478.226562 109.617188 451.46875 109.617188 Z M 105.46875 46.632812 C 105.46875 38.015625 112.476562 31.007812 121.09375 31.007812 L 378.90625 31.007812 C 387.523438 31.007812 394.53125 38.015625 394.53125 46.632812 L 394.53125 109.132812 L 105.46875 109.132812 Z M 105.46875 46.632812 "/>
<path style=" stroke:none;fill-rule:nonzero;fill:rgb(0%,0%,0%);fill-opacity:1;" d="M 343.75 351.8125 L 156.25 351.8125 C 151.9375 351.8125 148.445312 355.308594 148.445312 359.617188 C 148.445312 363.929688 151.9375 367.425781 156.25 367.425781 L 343.75 367.425781 C 348.058594 367.425781 351.554688 363.929688 351.554688 359.617188 C 351.554688 355.308594 348.058594 351.8125 343.75 351.8125 Z M 343.75 351.8125 "/>
<path style=" stroke:none;fill-rule:nonzero;fill:rgb(0%,0%,0%);fill-opacity:1;" d="M 343.75 406.5 L 156.25 406.5 C 151.9375 406.5 148.445312 409.996094 148.445312 414.304688 C 148.445312 418.617188 151.9375 422.113281 156.25 422.113281 L 343.75 422.113281 C 348.058594 422.113281 351.554688 418.617188 351.554688 414.304688 C 351.554688 409.996094 348.058594 406.5 343.75 406.5 Z M 343.75 406.5 "/>
<path style=" stroke:none;fill-rule:nonzero;fill:rgb(0%,0%,0%);fill-opacity:1;" d="M 77.804688 170.628906 C 77.804688 179.257812 70.808594 186.253906 62.179688 186.253906 C 53.550781 186.253906 46.554688 179.257812 46.554688 170.628906 C 46.554688 162 53.550781 155.003906 62.179688 155.003906 C 70.808594 155.003906 77.804688 162 77.804688 170.628906 Z M 77.804688 170.628906 "/>
<path style=" stroke:none;fill-rule:nonzero;fill:rgb(0%,0%,0%);fill-opacity:1;" d="M 127.230469 170.628906 C 127.230469 179.257812 120.238281 186.253906 111.605469 186.253906 C 102.976562 186.253906 95.980469 179.257812 95.980469 170.628906 C 95.980469 162 102.976562 155.003906 111.605469 155.003906 C 120.238281 155.003906 127.230469 162 127.230469 170.628906 Z M 127.230469 170.628906 "/>
<path style=" stroke:none;fill-rule:nonzero;fill:rgb(0%,0%,0%);fill-opacity:1;" d="M 176.65625 170.628906 C 176.65625 179.257812 169.664062 186.253906 161.03125 186.253906 C 152.402344 186.253906 145.40625 179.257812 145.40625 170.628906 C 145.40625 162 152.402344 155.003906 161.03125 155.003906 C 169.664062 155.003906 176.65625 162 176.65625 170.628906 Z M 176.65625 170.628906 "/>
<path style=" stroke:none;fill-rule:nonzero;fill:rgb(0%,0%,0%);fill-opacity:1;" d="M 85.9375 484.617188 L 414.0625 484.617188 L 414.0625 281.492188 L 85.9375 281.492188 Z M 104.714844 300.273438 L 395.285156 300.273438 L 395.285156 465.839844 L 104.714844 465.839844 Z M 104.714844 300.273438 "/>
</g>
</svg>
